<?xml version="1.0" standalone="no"?><!DOCTYPE svg PUBLIC "-//W3C//DTD SVG 1.1//EN" "http://www.w3.org/Graphics/SVG/1.1/DTD/svg11.dtd"><svg t="1628402973650" class="icon" viewBox="0 0 1024 1024" version="1.1" xmlns="http://www.w3.org/2000/svg" p-id="2262" xmlns:xlink="http://www.w3.org/1999/xlink" width="200" height="200"><defs><style type="text/css"></style></defs><path d="M738.133 910.933c-8.533 0-19.2-2.133-27.733-6.4L512 800 313.6 904.533c-27.733 14.934-61.867 4.267-76.8-23.466-6.4-10.667-8.533-23.467-6.4-36.267l38.4-219.733-160-155.734c-23.467-21.333-23.467-57.6 0-81.066 8.533-8.534 21.333-14.934 32-17.067l221.867-32L460.8 138.667c10.667-19.2 29.867-32 53.333-32 21.334 0 42.667 12.8 51.2 32L663.467 339.2l221.866 32c32 4.267 53.334 34.133 49.067 64-2.133 12.8-8.533 23.467-17.067 32l-160 155.733 38.4 219.734c4.267 32-14.933 61.866-46.933 66.133-4.267 2.133-8.533 2.133-10.667 2.133z" fill="#d81e06" p-id="2263"></path></svg>