<?xml version="1.0" standalone="no"?><!DOCTYPE svg PUBLIC "-//W3C//DTD SVG 1.1//EN" "http://www.w3.org/Graphics/SVG/1.1/DTD/svg11.dtd"><svg t="1628347310456" class="icon" viewBox="0 0 1024 1024" version="1.1" xmlns="http://www.w3.org/2000/svg" p-id="4055" xmlns:xlink="http://www.w3.org/1999/xlink" width="200" height="200"><defs><style type="text/css"></style></defs><path d="M1015.618667 336.917333l-486.357334 678.186667-0.085333 0.085333a21.098667 21.098667 0 0 1-6.677333 5.76 21.034667 21.034667 0 0 1-10.517334 3.050667 21.056 21.056 0 0 1-8.682666-2.090667 20.970667 20.970667 0 0 1-8.512-6.72l-0.106667-0.085333L8.28 336.853333a18.688 18.688 0 0 1-7.04-15.061333l0.042667-0.32c0-0.149333 0.085333-0.277333 0.085333-0.426667 0.085333-3.157333 0.832-6.165333 2.026667-9.024 0.277333-0.682667 0.106667-1.450667 0.469333-2.112L167 13.632c0.341333-0.597333 1.066667-1.152 1.536-1.728a20.778667 20.778667 0 0 1 10.389333-8.213333c0.192-0.064 0.405333 0 0.618667-0.064 4.394667-2.133333 9.002667-3.626667 12.48-3.626667h640c3.477333 0 8.085333 1.493333 12.458667 3.626667 0.170667 0.064 0.341333 0.021333 0.512 0.064 4.48 1.493333 7.808 4.565333 10.346666 8.149333 0.469333 0.597333 1.216 1.173333 1.557334 1.792l163.178666 296.277333c0.362667 0.64 0.192 1.386667 0.469334 2.069334 1.194667 2.858667 1.941333 5.888 2.048 9.066666-0.021333 0.149333 0.085333 0.277333 0.064 0.426667l0.064 0.32c0 6.570667-2.773333 11.690667-7.104 15.125333zM960.066667 341.333333h-205.205334l-178.24 534.72L960.066667 341.333333zM511.981333 58.538667L325.208 298.666667h373.546667L511.981333 58.538667z m0 876.885333L710.018667 341.333333H313.901333l198.08 594.090667z m-64.661333-59.392L269.058667 341.333333H63.896l383.424 534.698667zM178.264 68.970667L58.114667 298.666667h196.714666L178.264 68.970667zM214.338667 42.666667l76.821333 230.442666L470.424 42.666667H214.338667z m339.2 0l179.221333 230.421333L809.581333 42.666667H553.538667z m292.16 26.154666L769.090667 298.666667h196.757333L845.698667 68.821333z" fill="#ffffff" p-id="4056"></path></svg>