<?xml version="1.0" standalone="no"?><!DOCTYPE svg PUBLIC "-//W3C//DTD SVG 1.1//EN" "http://www.w3.org/Graphics/SVG/1.1/DTD/svg11.dtd"><svg t="1628418599034" class="icon" viewBox="0 0 3113 1024" version="1.1" xmlns="http://www.w3.org/2000/svg" p-id="20656" xmlns:xlink="http://www.w3.org/1999/xlink" width="608.0078125" height="200"><defs><style type="text/css"></style></defs><path d="M3112.581864 476.269757l-339.38685 140.771318a121.319281 121.319281 0 0 0 122.343072 78.831938 159.711459 159.711459 0 0 0 124.902551-73.201086l85.998478 58.35611a259.531121 259.531121 0 0 1-211.412924 113.12895 253.388372 253.388372 0 0 1-251.852685-253.388372c0-96.236392 60.915588-259.019225 240.590979-259.019225S3112.581864 476.269757 3112.581864 476.269757z m-128.997717-39.927865a117.224116 117.224116 0 0 0-109.54568-53.237153 133.092882 133.092882 0 0 0-121.319281 143.330797v3.071374z m-501.657787-409.004665H2595.567205v753.510472h-114.152741z m-179.163496 271.304722h104.938619v475.551106c0 121.319281-73.201085 249.805102-241.102875 249.805102a241.614771 241.614771 0 0 1-224.722213-150.497336l96.236392-40.43976a139.747526 139.747526 0 0 0 132.580986 93.165017c117.224116 0 131.557195-107.498097 131.557196-144.354588v-52.213361a166.877999 166.877999 0 0 1-141.283214 63.986963 249.805102 249.805102 0 0 1-239.567188-255.947851 248.269415 248.269415 0 0 1 240.079084-255.947851h1.535687A168.925581 168.925581 0 0 1 2303.786656 345.224457z m-132.580986 397.231064a148.961649 148.961649 0 0 0 137.699943-156.128189 139.747526 139.747526 0 1 0-276.935574 0 148.961649 148.961649 0 0 0 138.723735 156.128189z m-551.311671 98.283974a255.947851 255.947851 0 1 1 255.947851-255.94785 255.947851 255.947851 0 0 1-255.947851 255.94785z m0-100.843453a149.98544 149.98544 0 0 0 143.330797-155.616293 143.842692 143.842692 0 1 0-286.661593 0 149.98544 149.98544 0 0 0 141.795109 155.616293z m-555.918731 100.843453a255.947851 255.947851 0 1 1 255.94785-255.94785 255.947851 255.947851 0 0 1-255.94785 255.94785z m0-100.843453a149.98544 149.98544 0 0 0 143.330796-155.616293 149.98544 149.98544 0 0 0-143.330796-156.128189 149.98544 149.98544 0 0 0-143.330797 155.616293 149.98544 149.98544 0 0 0 143.330797 156.128189zM768.099552 366.212181v-4.607061H402.094125v107.498097h262.602495c-24.570994 146.402171-126.438238 214.484299-263.626286 214.484299-149.473545-53.237153-221.138943-233.936335-167.90179-383.40988 28.666159-80.879521 92.653122-144.354588 167.389894-189.913306a266.69766 266.69766 0 0 1 195.544158 76.27246l76.784355-76.27246A370.100592 370.100592 0 0 0 396.975168 0.206755a396.719168 396.719168 0 0 0 0 793.950232c222.67463 2.047583 407.468978-155.104397 370.612488-427.944806z" fill="#D4237A" p-id="20657"></path></svg>